<svg width="50" height="50" viewBox="0 0 50 50" fill="none" xmlns="http://www.w3.org/2000/svg">
<g clip-path="url(#clip0)">
<path d="M24.9618 49.9615C38.7478 49.9615 49.9236 38.7857 49.9236 24.9997C49.9236 11.2137 38.7478 0.0378914 24.9618 0.0378914C11.1758 0.0378914 0 11.2137 0 24.9997C0 38.7857 11.1758 49.9615 24.9618 49.9615Z" fill="#34ABE0"/>
<path d="M49.9999 25.0003C49.9999 28.6559 49.2144 32.1281 47.8023 35.257C44.3362 42.9381 37.0952 48.551 28.4442 49.7307C27.5232 49.8571 26.5858 49.9325 25.6363 49.9549C25.4376 49.9599 25.2379 49.962 25.0382 49.962C15.8859 49.962 7.88491 45.0369 3.5395 37.693C3.13403 37.0063 2.75903 36.2993 2.4188 35.5728C1.99087 34.6569 1.61597 33.7114 1.29907 32.7384L33.999 0.0384579L34.1304 1.74607L34.3708 4.85145L39.1849 5.22537L39.5588 10.0385L44.3719 10.4124L44.7458 15.2264L48.1233 15.4883C49.3326 18.4205 49.9999 21.6319 49.9999 25.0003Z" fill="#F9EED7"/>
<path d="M49.9999 25.0003C49.9999 28.6559 49.2144 32.1281 47.8023 35.257L23.2917 10.7455L33.9989 0.0384579L34.1303 1.74607L34.3708 4.85145L39.1848 5.22537L39.5588 10.0385L44.3719 10.4124L44.7458 15.2264L48.1232 15.4883C49.3325 18.4205 49.9999 21.6319 49.9999 25.0003Z" fill="#FF525D"/>
<path d="M34.8375 37.3996L32.2374 34.7995C30.4238 32.9859 28.5553 33.5352 27.0168 35.0735C25.4611 36.6304 24.9292 38.4806 26.7428 40.2931L29.3429 42.8941C31.1565 44.7066 33.0067 44.1759 34.5624 42.619C36.1009 41.0808 36.6511 39.2132 34.8375 37.3996ZM32.9699 41.0257C32.4014 41.5942 31.7973 41.6482 31.1931 41.044L28.592 38.4439C27.9878 37.8397 28.0429 37.2346 28.6104 36.6671C29.1789 36.0996 29.8014 36.0263 30.4056 36.6304L33.0067 39.2314C33.6109 39.8357 33.5374 40.4582 32.9699 41.0257ZM28.3912 49.4506L21.6332 29.799C21.5782 29.635 21.4682 29.4883 21.3581 29.3782C20.7723 28.7924 19.8196 28.9748 19.3071 29.4883C18.9771 29.8174 18.8314 30.2575 18.9953 30.7149L25.6361 49.9549C26.5858 49.9324 27.5231 49.857 28.4441 49.7308C28.4411 49.633 28.4238 49.5393 28.3912 49.4506ZM20.5339 39.9091L17.9338 37.308C16.1202 35.4955 14.2527 36.0446 12.7143 37.5831C11.1574 39.1399 10.6267 40.9892 12.4392 42.8026L15.0402 45.4027C16.8527 47.2163 18.703 46.6854 20.2598 45.1287C21.7983 43.5901 22.3475 41.7216 20.5339 39.9091ZM18.6663 43.5352C18.0988 44.1026 17.4937 44.1577 16.8895 43.5535L14.2894 40.9524C13.6842 40.3482 13.7392 39.744 14.3077 39.1766C14.8752 38.6091 15.4978 38.5357 16.102 39.1398L18.703 41.7399C19.3072 42.3441 19.2338 42.9677 18.6663 43.5352Z" fill="#FFD15C"/>
</g>
<defs>
<clipPath id="clip0">
<rect width="50" height="50" fill="white"/>
</clipPath>
</defs>
</svg>
